<svg width="345" height="320" viewBox="0 0 345 320" fill="none" xmlns="http://www.w3.org/2000/svg">
<mask id="mask0_201_279" style="mask-type:alpha" maskUnits="userSpaceOnUse" x="-10" y="0" width="370" height="320">
<rect x="-10" y="0.185059" width="369.673" height="319.679" fill="url(#paint0_linear_201_279)"/>
</mask>
<g mask="url(#mask0_201_279)">
<rect x="103.327" y="9.67773" width="305.795" height="165.472" transform="rotate(38.3057 103.327 9.67773)" fill="url(#paint1_linear_201_279)"/>
</g>
<mask id="mask1_201_279" style="mask-type:alpha" maskUnits="userSpaceOnUse" x="33" y="-26" width="311" height="388">
<rect x="61.8953" y="-25.6221" width="282.36" height="366.152" transform="rotate(4.52627 61.8953 -25.6221)" fill="url(#paint2_linear_201_279)"/>
</mask>
<g mask="url(#mask1_201_279)">
<path d="M141.072 214.445C141.072 214.445 144.667 219.326 155.632 220.194C172.579 221.536 194.823 218.7 194.823 218.7C194.823 218.7 260.367 188.657 258.401 213.491C257.595 223.669 131.511 245.307 131.511 245.307L27.8512 237.101L141.072 214.445Z" fill="url(#paint3_linear_201_279)" style="mix-blend-mode:multiply"/>
</g>
<g clip-path="url(#clip0_201_279)">
<path d="M153.965 149.901L130.975 128.708L128.667 129.716L135.895 214.153C136.053 216.005 137.528 217.471 139.381 217.618C141.578 217.792 143.462 216.066 143.481 213.863L143.785 179.171C143.867 169.746 147.391 160.692 153.665 153.695L153.965 149.901Z" fill="#B8D1FF"/>
<path d="M139.718 214.127L138.223 135.39L130.975 128.708L128.667 129.716L135.895 214.153C136.053 216.005 137.528 217.471 139.381 217.618C140.109 217.675 140.8 217.521 141.403 217.213C140.398 216.54 139.742 215.404 139.718 214.127Z" fill="#AAC8FF"/>
<mask id="mask2_201_279" style="mask-type:alpha" maskUnits="userSpaceOnUse" x="128" y="128" width="26" height="90">
<path d="M153.965 149.901L130.975 128.708L128.667 129.716L135.895 214.153C136.053 216.005 137.528 217.471 139.381 217.618C141.578 217.792 143.462 216.066 143.481 213.863L143.785 179.171C143.867 169.746 147.391 160.692 153.665 153.695L153.965 149.901Z" fill="#B8D1FF"/>
</mask>
<g mask="url(#mask2_201_279)">
<rect x="132.925" y="111.676" width="51.3131" height="67.3251" transform="rotate(27.1618 132.925 111.676)" fill="url(#paint4_linear_201_279)" style="mix-blend-mode:multiply"/>
</g>
<path d="M189.948 163.215C172.658 123.935 152.734 98.1225 152.734 98.1225L150.943 102.431L187.573 187.961L207.778 197.857L229.099 193.323L229.376 189.829C215.918 189.64 199.307 184.48 189.948 163.215Z" fill="#084BCC"/>
<path d="M207.778 197.856L217.751 195.736C206.266 192.108 194.517 183.615 189.619 164.747C189.124 162.836 188.618 160.954 188.104 159.099C171.273 122.143 152.734 98.1225 152.734 98.1225L150.943 102.431L175.326 159.365L175.945 159.179L176.914 163.072L187.573 187.961L207.778 197.856Z" fill="#0443BB"/>
<path d="M142.835 93.5211C144.933 91.4911 148.347 91.8165 150.045 94.1909C155.399 101.677 166.625 119.488 175.548 147.824C187.218 184.883 198.503 204.136 230.134 189.487C232.84 188.234 235.978 188.314 238.611 189.715C246.741 193.007 252.961 196.053 257.652 198.663C263.714 202.037 263.013 210.964 256.489 213.321C247.997 216.388 236.215 219.982 222.761 222.236C211.067 224.195 200.906 222.73 193.11 220.415C183.713 217.624 176.646 209.838 174.75 200.221C166.189 156.811 135.398 134.201 128.667 129.716C127.853 129.174 127.401 128.229 127.492 127.256C129.163 109.326 137.645 98.5435 142.835 93.5211Z" fill="url(#paint5_linear_201_279)"/>
<mask id="mask3_201_279" style="mask-type:alpha" maskUnits="userSpaceOnUse" x="127" y="92" width="135" height="132">
<path d="M142.835 93.5211C144.933 91.4911 148.347 91.8165 150.045 94.1909C155.399 101.677 166.625 119.488 175.548 147.824C187.218 184.883 198.503 204.136 230.134 189.487C232.84 188.234 235.978 188.314 238.611 189.715C246.741 193.007 252.961 196.053 257.652 198.663C263.714 202.037 263.013 210.964 256.489 213.321C247.997 216.388 236.215 219.982 222.761 222.236C211.067 224.195 200.906 222.73 193.11 220.415C183.713 217.624 176.646 209.838 174.75 200.221C166.189 156.811 135.398 134.201 128.667 129.716C127.853 129.174 127.401 128.229 127.492 127.256C129.163 109.326 137.645 98.5435 142.835 93.5211Z" fill="url(#paint6_linear_201_279)"/>
</mask>
<g mask="url(#mask3_201_279)">
<rect x="244.506" y="-37.1372" width="448.945" height="466.477" transform="rotate(34.5263 244.506 -37.1372)" fill="url(#paint7_linear_201_279)" style="mix-blend-mode:overlay"/>
</g>
</g>
<g clip-path="url(#clip1_201_279)">
<path d="M167.464 263.101L102.909 271.569L94.441 207.014C93.7729 201.92 89.1026 198.333 84.0092 199.001C78.9158 199.669 75.3286 204.34 75.9967 209.433L85.6741 283.21C86.3422 288.304 91.0126 291.891 96.106 291.223L169.883 281.546C174.977 280.877 178.564 276.207 177.896 271.114C177.228 266.02 172.557 262.433 167.464 263.101Z" fill="url(#paint8_linear_201_279)"/>
<path d="M138.917 45.4584L65.1396 55.1358C60.0462 55.8039 56.459 60.4742 57.1271 65.5676L66.8045 139.345C67.4726 144.438 72.143 148.026 77.2364 147.357C82.3298 146.689 85.917 142.019 85.2489 136.926L76.7811 72.3704L141.336 63.9027C146.43 63.2346 150.017 58.5643 149.349 53.4709C148.681 48.3775 144.01 44.7903 138.917 45.4584Z" fill="url(#paint9_linear_201_279)"/>
<path d="M301.654 170.453C296.56 171.121 292.973 175.791 293.641 180.885L302.109 245.44L237.554 253.907C232.46 254.576 228.873 259.246 229.541 264.339C230.209 269.433 234.88 273.02 239.973 272.352L313.75 262.674C318.844 262.006 322.431 257.336 321.763 252.243L312.085 178.465C311.417 173.372 306.747 169.785 301.654 170.453Z" fill="url(#paint10_linear_201_279)"/>
<path d="M282.783 26.5877L209.005 36.2651C203.912 36.9332 200.325 41.6035 200.993 46.6969C201.661 51.7903 206.331 55.3775 211.425 54.7094L275.98 46.2417L284.448 110.797C285.116 115.89 289.786 119.477 294.88 118.809C299.973 118.141 303.56 113.471 302.892 108.377L293.215 34.6001C292.547 29.5067 287.876 25.9195 282.783 26.5877Z" fill="url(#paint11_linear_201_279)"/>
</g>
<defs>
<linearGradient id="paint0_linear_201_279" x1="174.837" y1="0.185059" x2="174.837" y2="319.864" gradientUnits="userSpaceOnUse">
<stop stop-color="#E6EFFF" stop-opacity="0"/>
<stop offset="0.546875" stop-color="#E6EFFF"/>
<stop offset="1" stop-color="#E6EFFF" stop-opacity="0"/>
</linearGradient>
<linearGradient id="paint1_linear_201_279" x1="105.034" y1="91.4172" x2="418.577" y2="101.164" gradientUnits="userSpaceOnUse">
<stop stop-color="#DDE9FF" stop-opacity="0"/>
<stop offset="0.552083" stop-color="#DDE9FF"/>
<stop offset="1" stop-color="#DDE9FF" stop-opacity="0"/>
</linearGradient>
<linearGradient id="paint2_linear_201_279" x1="203.075" y1="-25.6221" x2="203.075" y2="340.53" gradientUnits="userSpaceOnUse">
<stop stop-color="#E6EFFF" stop-opacity="0"/>
<stop offset="0.546875" stop-color="#E6EFFF"/>
<stop offset="1" stop-color="#E6EFFF" stop-opacity="0"/>
</linearGradient>
<linearGradient id="paint3_linear_201_279" x1="177.578" y1="215.411" x2="104.851" y2="247.601" gradientUnits="userSpaceOnUse">
<stop stop-color="#3A72D7" stop-opacity="0.61"/>
<stop offset="1" stop-color="#2965D0" stop-opacity="0"/>
</linearGradient>
<linearGradient id="paint4_linear_201_279" x1="161.148" y1="134.773" x2="172.57" y2="179.232" gradientUnits="userSpaceOnUse">
<stop stop-color="#457EEC"/>
<stop offset="1" stop-color="#659BFF" stop-opacity="0"/>
</linearGradient>
<linearGradient id="paint5_linear_201_279" x1="275.175" y1="84.1127" x2="119.915" y2="274.978" gradientUnits="userSpaceOnUse">
<stop stop-color="#C9DCFF"/>
<stop offset="0.996063" stop-color="#055CFF"/>
</linearGradient>
<linearGradient id="paint6_linear_201_279" x1="275.175" y1="84.1127" x2="119.915" y2="274.978" gradientUnits="userSpaceOnUse">
<stop stop-color="#C9DCFF"/>
<stop offset="0.996063" stop-color="#055CFF"/>
</linearGradient>
<linearGradient id="paint7_linear_201_279" x1="493.466" y1="151.483" x2="446.061" y2="275.232" gradientUnits="userSpaceOnUse">
<stop stop-color="#ABC3FF"/>
<stop offset="1" stop-color="#90D4FF" stop-opacity="0"/>
</linearGradient>
<linearGradient id="paint8_linear_201_279" x1="120.898" y1="194.163" x2="132.995" y2="286.384" gradientUnits="userSpaceOnUse">
<stop stop-color="#93B8FF"/>
<stop offset="1" stop-color="#5991FD"/>
</linearGradient>
<linearGradient id="paint9_linear_201_279" x1="102.028" y1="50.2971" x2="114.125" y2="142.519" gradientUnits="userSpaceOnUse">
<stop stop-color="#93B8FF"/>
<stop offset="1" stop-color="#5991FD"/>
</linearGradient>
<linearGradient id="paint10_linear_201_279" x1="264.765" y1="175.291" x2="276.862" y2="267.513" gradientUnits="userSpaceOnUse">
<stop stop-color="#93B8FF"/>
<stop offset="1" stop-color="#5991FD"/>
</linearGradient>
<linearGradient id="paint11_linear_201_279" x1="245.894" y1="31.4264" x2="257.991" y2="123.648" gradientUnits="userSpaceOnUse">
<stop stop-color="#93B8FF"/>
<stop offset="1" stop-color="#5991FD"/>
</linearGradient>
<clipPath id="clip0_201_279">
<rect width="140.124" height="140.124" fill="white" transform="translate(130.941 83.6759) rotate(4.52627)"/>
</clipPath>
<clipPath id="clip1_201_279">
<rect width="213.984" height="213.984" fill="white" transform="translate(69.446 66.7371) rotate(-7.47285)"/>
</clipPath>
</defs>
</svg>
